<svg width="158" height="44" viewBox="0 0 158 44" fill="none" xmlns="http://www.w3.org/2000/svg">
<path d="M56.3525 12.7798V29.92H54.7856V27.5176C54.2941 28.3338 53.641 28.9575 52.8269 29.3887C52.0281 29.8199 51.1218 30.0355 50.108 30.0355C48.9712 30.0355 47.942 29.7737 47.0204 29.2501C46.0987 28.7265 45.3767 27.995 44.8545 27.0556C44.3322 26.1162 44.071 25.0459 44.071 23.8447C44.071 22.6435 44.3322 21.5732 44.8545 20.6338C45.3767 19.6944 46.0987 18.9706 47.0204 18.4624C47.942 17.9388 48.9712 17.677 50.108 17.677C51.0911 17.677 51.9746 17.8849 52.758 18.3007C53.5568 18.7011 54.2094 19.294 54.7163 20.0794V12.7798H56.3525ZM50.2462 28.5802C51.0911 28.5802 51.8517 28.3877 52.5276 28.0027C53.2188 27.6023 53.7564 27.0402 54.1405 26.3164C54.5399 25.5926 54.7396 24.7687 54.7396 23.8447C54.7396 22.9207 54.5399 22.0968 54.1405 21.373C53.7564 20.6492 53.2188 20.0948 52.5276 19.7098C51.8517 19.3094 51.0911 19.1092 50.2462 19.1092C49.386 19.1092 48.6105 19.3094 47.9192 19.7098C47.2433 20.0948 46.7057 20.6492 46.3063 21.373C45.9223 22.0968 45.73 22.9207 45.73 23.8447C45.73 24.7687 45.9223 25.5926 46.3063 26.3164C46.7057 27.0402 47.2433 27.6023 47.9192 28.0027C48.6105 28.3877 49.386 28.5802 50.2462 28.5802Z" fill="black"/>
<path d="M64.4799 30.0355C63.3124 30.0355 62.2604 29.7737 61.3234 29.2501C60.3863 28.7111 59.649 27.9719 59.1114 27.0325C58.5737 26.0931 58.3047 25.0305 58.3047 23.8447C58.3047 22.6589 58.5737 21.5963 59.1114 20.6569C59.649 19.7175 60.3863 18.986 61.3234 18.4624C62.2604 17.9388 63.3124 17.677 64.4799 17.677C65.6473 17.677 66.6998 17.9388 67.6368 18.4624C68.5738 18.986 69.3032 19.7175 69.8255 20.6569C70.3632 21.5963 70.6322 22.6589 70.6322 23.8447C70.6322 25.0305 70.3632 26.0931 69.8255 27.0325C69.3032 27.9719 68.5738 28.7111 67.6368 29.2501C66.6998 29.7737 65.6473 30.0355 64.4799 30.0355ZM64.4799 28.5802C65.3401 28.5802 66.1081 28.3877 66.784 28.0027C67.4753 27.6023 68.0129 27.0402 68.3969 26.3164C68.781 25.5926 68.9732 24.7687 68.9732 23.8447C68.9732 22.9207 68.781 22.0968 68.3969 21.373C68.0129 20.6492 67.4753 20.0948 66.784 19.7098C66.1081 19.3094 65.3401 19.1092 64.4799 19.1092C63.6196 19.1092 62.8441 19.3094 62.1529 19.7098C61.477 20.0948 60.9393 20.6492 60.5399 21.373C60.1559 22.0968 59.9637 22.9207 59.9637 23.8447C59.9637 24.7687 60.1559 25.5926 60.5399 26.3164C60.9393 27.0402 61.477 27.6023 62.1529 28.0027C62.8441 28.3877 63.6196 28.5802 64.4799 28.5802Z" fill="black"/>
<path d="M87.7049 17.677C89.2257 17.677 90.4159 18.1159 91.2762 18.9937C92.1518 19.8715 92.5898 21.1651 92.5898 22.8745V29.92H90.9536V23.0362C90.9536 21.7734 90.6464 20.8109 90.0319 20.1487C89.4328 19.4865 88.5805 19.1554 87.4745 19.1554C86.2149 19.1554 85.2239 19.5481 84.5019 20.3335C83.7799 21.1035 83.4192 22.1738 83.4192 23.5444V29.92H81.783V23.0362C81.783 21.7734 81.4758 20.8109 80.8613 20.1487C80.2623 19.4865 79.402 19.1554 78.2807 19.1554C77.0364 19.1554 76.0459 19.5481 75.3085 20.3335C74.5865 21.1035 74.2253 22.1738 74.2253 23.5444V29.92H72.5896V17.7694H74.1564V19.987C74.5865 19.2478 75.1856 18.678 75.9537 18.2776C76.7217 17.8772 77.6048 17.677 78.6033 17.677C79.6171 17.677 80.4927 17.8926 81.23 18.3238C81.9827 18.755 82.5436 19.3941 82.9123 20.2411C83.3577 19.4403 83.995 18.8166 84.8245 18.37C85.6694 17.908 86.6297 17.677 87.7049 17.677Z" fill="black"/>
<path d="M106.565 17.7694V29.92H104.998V27.7024C104.568 28.4416 103.977 29.0191 103.224 29.4349C102.472 29.8353 101.612 30.0355 100.644 30.0355C99.0616 30.0355 97.8095 29.5966 96.8878 28.7188C95.9815 27.8256 95.5286 26.5243 95.5286 24.8149V17.7694H97.1643V24.6532C97.1643 25.9314 97.4794 26.9016 98.1092 27.5638C98.739 28.226 99.6374 28.5571 100.805 28.5571C102.08 28.5571 103.086 28.1721 103.824 27.4021C104.561 26.6167 104.93 25.531 104.93 24.145V17.7694H106.565Z" fill="black"/>
<path d="M113.014 30.0355C112.031 30.0355 111.086 29.8969 110.18 29.6197C109.289 29.3271 108.59 28.9652 108.083 28.534L108.82 27.2404C109.327 27.6408 109.965 27.9719 110.733 28.2337C111.501 28.4801 112.299 28.6033 113.129 28.6033C114.235 28.6033 115.049 28.4339 115.571 28.0951C116.109 27.7409 116.378 27.2481 116.378 26.6167C116.378 26.1701 116.232 25.8236 115.94 25.5772C115.648 25.3154 115.279 25.1229 114.834 24.9997C114.389 24.8611 113.797 24.7302 113.06 24.607C112.077 24.4222 111.286 24.2374 110.686 24.0526C110.087 23.8524 109.573 23.5213 109.143 23.0593C108.728 22.5973 108.521 21.9582 108.521 21.142C108.521 20.1256 108.943 19.294 109.788 18.6472C110.633 18.0004 111.808 17.677 113.313 17.677C114.097 17.677 114.88 17.7848 115.663 18.0004C116.447 18.2006 117.092 18.4701 117.599 18.8089L116.885 20.1256C115.886 19.4326 114.696 19.0861 113.313 19.0861C112.269 19.0861 111.478 19.2709 110.94 19.6405C110.418 20.0101 110.157 20.4952 110.157 21.0958C110.157 21.5578 110.302 21.9274 110.594 22.2046C110.902 22.4818 111.278 22.6897 111.724 22.8283C112.169 22.9515 112.784 23.0824 113.567 23.221C114.535 23.4058 115.31 23.5906 115.894 23.7754C116.478 23.9602 116.977 24.2759 117.392 24.7225C117.807 25.1691 118.014 25.7851 118.014 26.5705C118.014 27.6331 117.568 28.4801 116.677 29.1115C115.802 29.7275 114.581 30.0355 113.014 30.0355Z" fill="black"/>
<path d="M122.951 11.484H126.374V29.964H122.951V11.484Z" fill="black"/>
<path d="M149.504 31.812C148.889 32.5336 148.169 33.0792 147.344 33.4488C146.537 33.8184 145.65 34.0032 144.685 34.0032C143.421 34.0032 142.262 33.7128 141.209 33.132C140.155 32.5688 138.953 31.5832 137.601 30.1752C135.898 30.0344 134.371 29.5416 133.019 28.6968C131.667 27.8344 130.614 26.7168 129.859 25.344C129.104 23.9536 128.727 22.4136 128.727 20.724C128.727 18.9288 129.157 17.3096 130.017 15.8664C130.877 14.4056 132.062 13.2704 133.572 12.4608C135.082 11.6336 136.776 11.22 138.654 11.22C140.533 11.22 142.227 11.6336 143.737 12.4608C145.246 13.2704 146.431 14.3968 147.292 15.84C148.152 17.2832 148.582 18.9112 148.582 20.724C148.582 22.1848 148.292 23.54 147.713 24.7896C147.134 26.0216 146.326 27.0776 145.29 27.9576C144.254 28.82 143.052 29.4448 141.683 29.832C142.192 30.3776 142.692 30.7736 143.184 31.02C143.675 31.2664 144.202 31.3896 144.764 31.3896C145.975 31.3896 147.028 30.8968 147.924 29.9112L149.504 31.812ZM132.176 20.724C132.176 21.956 132.457 23.0736 133.019 24.0768C133.581 25.0624 134.353 25.8368 135.336 26.4C136.319 26.9456 137.425 27.2184 138.654 27.2184C139.883 27.2184 140.989 26.9456 141.972 26.4C142.955 25.8368 143.728 25.0624 144.29 24.0768C144.851 23.0736 145.132 21.956 145.132 20.724C145.132 19.492 144.851 18.3832 144.29 17.3976C143.728 16.3944 142.955 15.62 141.972 15.0744C140.989 14.5112 139.883 14.2296 138.654 14.2296C137.425 14.2296 136.319 14.5112 135.336 15.0744C134.353 15.62 133.581 16.3944 133.019 17.3976C132.457 18.3832 132.176 19.492 132.176 20.724Z" fill="black"/>
<path d="M31.8883 12.5025L31.8831 12.4938L31.8658 12.5042L18.2524 20.3815V20.3867L18.2489 20.3884L18.2524 20.3936V24.1713L20.8974 25.8187L19.0668 26.8795L16.2682 25.2199V19.3103L29.9299 11.369L29.245 10.9676H29.2432L15.578 18.9105V25.6145L18.38 27.2758L16.5011 28.3625H16.4994L13.5075 26.6043V17.983L27.4177 9.8964L26.7345 9.4949L12.8173 17.585V27.0006L15.8126 28.7605L13.8819 29.8784L10.9625 28.1618V16.4549L24.8434 8.38566L24.1567 7.98416L10.2724 16.0552V28.5581L13.1952 30.2764L11.3525 31.3424L8.59006 29.7192V14.6379L22.1052 6.78146L21.4202 6.38L7.8999 14.2382V30.1155L11.3421 32.1402L11.3473 32.1489L24.978 24.2613V24.2578L24.9815 24.2561L24.978 24.2509V20.4714L22.3312 18.824L24.1636 17.7632L26.9622 19.4227V25.3341L13.2728 33.2927L13.9578 33.6924L27.6524 25.7322V19.0282L24.8503 17.3669L26.7293 16.2802H26.731L29.7229 18.0401V26.6597L15.7833 34.7636L16.4683 35.1651L30.4131 27.0594V17.6421L27.4177 15.8822L29.3484 14.7642L32.2678 16.4827V28.1895L18.3593 36.2726L19.0443 36.6759L32.958 28.5875V16.0846L30.0352 14.3663L31.8779 13.3003L34.6403 14.9252V30.0065L21.0958 37.8785L21.7825 38.28L35.3305 30.4045V14.5272L31.8883 12.5025ZM24.2878 20.8574V23.858L21.5755 25.4258L18.9425 23.7871V20.7847L21.6531 19.2168L24.2878 20.8574Z" fill="black"/>
</svg>
