<svg width="40" height="40" viewBox="0 0 40 40" fill="none" xmlns="http://www.w3.org/2000/svg">
<circle cx="20" cy="20" r="20" fill="#1A1A24"/>
<path d="M15.1154 28.1153C14.8648 28.1153 14.6547 28.0306 14.4851 27.861C14.3156 27.6915 14.2308 27.4814 14.2308 27.2307V25.7308H26.6058L26.9231 26.0481V17H28.4231C28.6737 17 28.8838 17.0848 29.0534 17.2543C29.2229 17.4239 29.3077 17.634 29.3077 17.8846V29.4692C29.3077 29.8723 29.1228 30.1522 28.7529 30.309C28.383 30.4658 28.0558 30.4018 27.7712 30.1172L25.7693 28.1153H15.1154ZM14.2308 23.7308L12.2289 25.7327C11.9443 26.0173 11.6171 26.0812 11.2472 25.9244C10.8773 25.7676 10.6924 25.4877 10.6924 25.0846V14.3847C10.6924 14.134 10.7772 13.9239 10.9467 13.7544C11.1163 13.5848 11.3264 13.5 11.577 13.5H24.0385C24.2891 13.5 24.4992 13.5848 24.6688 13.7544C24.8383 13.9239 24.9231 14.134 24.9231 14.3847V22.8462C24.9231 23.0968 24.8383 23.3069 24.6688 23.4764C24.4992 23.646 24.2891 23.7308 24.0385 23.7308H14.2308ZM23.4231 22.2308V15H12.1924V22.9232L12.8847 22.2308H23.4231Z" fill="white"/>
</svg>
