<svg width="25" height="24" viewBox="0 0 25 24" fill="none" xmlns="http://www.w3.org/2000/svg">
<path d="M18.5 18.0577C18.9166 18.0577 19.2708 17.9119 19.5625 17.6202C19.8541 17.3285 20 16.9744 20 16.5577C20 16.141 19.8541 15.7869 19.5625 15.4952C19.2708 15.2035 18.9166 15.0577 18.5 15.0577C18.0833 15.0577 17.7291 15.2035 17.4375 15.4952C17.1458 15.7869 17 16.141 17 16.5577C17 16.9744 17.1458 17.3285 17.4375 17.6202C17.7291 17.9119 18.0833 18.0577 18.5 18.0577ZM18.5 21.0577C19 21.0577 19.4666 20.941 19.9 20.7077C20.3333 20.4744 20.6916 20.1494 20.975 19.7327C20.5916 19.4994 20.1916 19.3285 19.775 19.2202C19.3583 19.1119 18.9333 19.0577 18.5 19.0577C18.0666 19.0577 17.6416 19.1119 17.225 19.2202C16.8083 19.3285 16.4083 19.4994 16.025 19.7327C16.3083 20.1494 16.6666 20.4744 17.1 20.7077C17.5333 20.941 18 21.0577 18.5 21.0577ZM5.8077 20.5C5.31058 20.5 4.88503 20.323 4.53102 19.969C4.17701 19.615 4 19.1894 4 18.6923V5.30773C4 4.81061 4.17701 4.38506 4.53102 4.03106C4.88503 3.67704 5.31058 3.50003 5.8077 3.50003H19.1923C19.6894 3.50003 20.1149 3.67704 20.4689 4.03106C20.8229 4.38506 21 4.81061 21 5.30773V11.6327C20.7538 11.5276 20.5073 11.4385 20.2605 11.3654C20.0137 11.2923 19.7602 11.234 19.5 11.1904V5.30773C19.5 5.2308 19.4679 5.16027 19.4038 5.09616C19.3397 5.03206 19.2692 5.00001 19.1923 5.00001H5.8077C5.73077 5.00001 5.66024 5.03206 5.59612 5.09616C5.53202 5.16027 5.49997 5.2308 5.49997 5.30773V18.6923C5.49997 18.7692 5.53202 18.8397 5.59612 18.9039C5.66024 18.968 5.73077 19 5.8077 19H11.6654C11.7025 19.2769 11.7577 19.5388 11.8307 19.7856C11.9038 20.0324 11.9929 20.2705 12.0981 20.5H5.8077ZM5.49997 19V5.00001V11.1904V11.1154V19ZM7.75 15.885C7.75 16.0975 7.82188 16.2756 7.96563 16.4192C8.10936 16.5628 8.28748 16.6346 8.49998 16.6346H11.7673C11.8109 16.3744 11.8756 16.1208 11.9615 15.874C12.0474 15.6272 12.141 15.3808 12.2423 15.1346H8.49998C8.28748 15.1346 8.10936 15.2065 7.96563 15.3504C7.82188 15.4942 7.75 15.6724 7.75 15.885ZM7.75 12.0003C7.75 12.2129 7.82188 12.391 7.96563 12.5346C8.10936 12.6782 8.28748 12.75 8.49998 12.75H14.0904C14.5212 12.3846 14.9808 12.0785 15.4692 11.8317C15.9577 11.5849 16.4807 11.4096 17.0384 11.3058C16.9259 11.281 16.8009 11.2655 16.6634 11.2593C16.5259 11.2531 16.4009 11.25 16.2884 11.25H8.49998C8.28748 11.25 8.10936 11.3219 7.96563 11.4657C7.82188 11.6095 7.75 11.7877 7.75 12.0003ZM7.75 8.11573C7.75 8.32833 7.82188 8.50642 7.96563 8.65001C8.10936 8.79359 8.28748 8.86538 8.49998 8.86538H16.5C16.7125 8.86538 16.8906 8.79347 17.0344 8.64966C17.1781 8.50586 17.25 8.32766 17.25 8.11506C17.25 7.90247 17.1781 7.72439 17.0344 7.58081C16.8906 7.43721 16.7125 7.36541 16.5 7.36541H8.49998C8.28748 7.36541 8.10936 7.43731 7.96563 7.58113C7.82188 7.72495 7.75 7.90315 7.75 8.11573ZM18.5 22.5577C17.2513 22.5577 16.1891 22.1198 15.3135 21.2442C14.4378 20.3686 14 19.3064 14 18.0577C14 16.809 14.4378 15.7468 15.3135 14.8712C16.1891 13.9955 17.2513 13.5577 18.5 13.5577C19.7487 13.5577 20.8109 13.9955 21.6865 14.8712C22.5621 15.7468 23 16.809 23 18.0577C23 19.3064 22.5621 20.3686 21.6865 21.2442C20.8109 22.1198 19.7487 22.5577 18.5 22.5577Z" fill="#A251A2"/>
</svg>
