<svg width="24" height="24" viewBox="0 0 24 24" fill="none" xmlns="http://www.w3.org/2000/svg">
<path d="M7.11543 17.1153C6.86478 17.1153 6.65468 17.0306 6.48513 16.861C6.31558 16.6915 6.23081 16.4814 6.23081 16.2307V14.7308H18.6058L18.9231 15.0481V6.00001H20.4231C20.6737 6.00001 20.8838 6.08478 21.0534 6.25433C21.2229 6.42388 21.3077 6.63397 21.3077 6.88461V18.4692C21.3077 18.8723 21.1228 19.1522 20.7529 19.309C20.383 19.4658 20.0558 19.4018 19.7712 19.1172L17.7693 17.1153H7.11543ZM6.23081 12.7308L4.22891 14.7327C3.94431 15.0173 3.61707 15.0812 3.24718 14.9244C2.87732 14.7676 2.69238 14.4877 2.69238 14.0846V3.38466C2.69238 3.13401 2.77716 2.92391 2.94671 2.75436C3.11626 2.58481 3.32636 2.50003 3.57701 2.50003H16.0385C16.2891 2.50003 16.4992 2.58481 16.6688 2.75436C16.8383 2.92391 16.9231 3.13401 16.9231 3.38466V11.8462C16.9231 12.0968 16.8383 12.3069 16.6688 12.4764C16.4992 12.646 16.2891 12.7308 16.0385 12.7308H6.23081ZM15.4231 11.2308V4.00001H4.19236V11.9232L4.88471 11.2308H15.4231Z" fill="white"/>
</svg>
