<svg width="1026" height="717" viewBox="0 0 1026 717" fill="none" xmlns="http://www.w3.org/2000/svg">
<mask id="path-1-outside-1_237_1709" maskUnits="userSpaceOnUse" x="0" y="0" width="1026" height="717" fill="black">
<rect fill="white" width="1026" height="717"/>
<path d="M1 5.99999C1 3.23857 3.23858 1 6 1H1025V711C1025 713.761 1022.76 716 1020 716H6C3.23858 716 1 713.761 1 711V5.99999Z"/>
</mask>
<path d="M1 5.99999C1 3.23857 3.23858 1 6 1H1025V711C1025 713.761 1022.76 716 1020 716H6C3.23858 716 1 713.761 1 711V5.99999Z" fill="white"/>
<path d="M1025 1H1026C1026 0.447715 1025.55 0 1025 0V1ZM6 2H1025V0H6V2ZM1024 1V711H1026V1H1024ZM1020 715H6V717H1020V715ZM2 711V5.99999H0V711H2ZM6 715C3.79086 715 2 713.209 2 711H0C0 714.314 2.68629 717 6 717V715ZM1024 711C1024 713.209 1022.21 715 1020 715V717C1023.31 717 1026 714.314 1026 711H1024ZM6 0C2.68629 0 0 2.68628 0 5.99999H2C2 3.79086 3.79086 2 6 2V0Z" fill="#EAEBEB" mask="url(#path-1-outside-1_237_1709)"/>
</svg>
