<svg width="1026" height="1250" viewBox="0 0 1026 1250" fill="none" xmlns="http://www.w3.org/2000/svg">
<mask id="path-1-outside-1_232_2504" maskUnits="userSpaceOnUse" x="0" y="0" width="1026" height="1250" fill="black">
<rect fill="white" width="1026" height="1250"/>
<path d="M1 5.99997C1 3.23855 3.23858 1 6 1H1025V1244C1025 1246.76 1022.76 1249 1020 1249H6C3.23858 1249 1 1246.76 1 1244V5.99997Z"/>
</mask>
<path d="M1 5.99997C1 3.23855 3.23858 1 6 1H1025V1244C1025 1246.76 1022.76 1249 1020 1249H6C3.23858 1249 1 1246.76 1 1244V5.99997Z" fill="white"/>
<path d="M1025 1H1026C1026 0.447715 1025.55 0 1025 0V1ZM6 2H1025V0H6V2ZM1024 1V1244H1026V1H1024ZM1020 1248H6V1250H1020V1248ZM2 1244V5.99997H0V1244H2ZM6 1248C3.79086 1248 2 1246.21 2 1244H0C0 1247.31 2.68629 1250 6 1250V1248ZM1024 1244C1024 1246.21 1022.21 1248 1020 1248V1250C1023.31 1250 1026 1247.31 1026 1244H1024ZM6 0C2.6863 0 0 2.68625 0 5.99997H2C2 3.79084 3.79085 2 6 2V0Z" fill="#EAEBEB" mask="url(#path-1-outside-1_232_2504)"/>
</svg>
