<svg width="1026" height="1094" viewBox="0 0 1026 1094" fill="none" xmlns="http://www.w3.org/2000/svg">
<mask id="path-1-outside-1_237_1712" maskUnits="userSpaceOnUse" x="0" y="0" width="1026" height="1094" fill="black">
<rect fill="white" width="1026" height="1094"/>
<path d="M1 6.00002C1 3.23859 3.23858 1 6 1H1025V1088C1025 1090.76 1022.76 1093 1020 1093H6C3.23858 1093 1 1090.76 1 1088V6.00002Z"/>
</mask>
<path d="M1 6.00002C1 3.23859 3.23858 1 6 1H1025V1088C1025 1090.76 1022.76 1093 1020 1093H6C3.23858 1093 1 1090.76 1 1088V6.00002Z" fill="white"/>
<path d="M1025 1H1026C1026 0.447715 1025.55 0 1025 0V1ZM6 2H1025V0H6V2ZM1024 1V1088H1026V1H1024ZM1020 1092H6V1094H1020V1092ZM2 1088V6.00002H0V1088H2ZM6 1092C3.79086 1092 2 1090.21 2 1088H0C0 1091.31 2.68629 1094 6 1094V1092ZM1024 1088C1024 1090.21 1022.21 1092 1020 1092V1094C1023.31 1094 1026 1091.31 1026 1088H1024ZM6 0C2.68629 0 0 2.68631 0 6.00002H2C2 3.79087 3.79087 2 6 2V0Z" fill="#EAEBEB" mask="url(#path-1-outside-1_237_1712)"/>
</svg>
