<svg width="17" height="16" viewBox="0 0 17 16" fill="none" xmlns="http://www.w3.org/2000/svg">
<path d="M2.74039 13.7396C2.03522 13.0313 1.48456 12.2168 1.08839 11.2961C0.692224 10.3755 0.494141 9.42365 0.494141 8.44065C0.494141 7.45481 0.682974 6.47665 1.06064 5.50615C1.43814 4.53565 2.04806 3.62923 2.89039 2.7869C3.49939 2.1779 4.26189 1.67623 5.17789 1.2819C6.09389 0.88773 7.13139 0.587479 8.29039 0.381145C9.44939 0.174645 10.7125 0.0543956 12.0796 0.0203956C13.447 -0.0134377 14.8813 0.0304795 16.3826 0.152146C16.4903 1.58548 16.5271 2.97815 16.4931 4.33015C16.4591 5.68198 16.3409 6.94248 16.1384 8.11165C15.9357 9.28098 15.6399 10.3339 15.2509 11.2704C14.8617 12.2069 14.3607 12.9816 13.7479 13.5944C12.9222 14.4266 12.0392 15.034 11.0989 15.4166C10.1586 15.7993 9.20614 15.9906 8.24164 15.9906C7.23047 15.9906 6.23706 15.7926 5.26139 15.3964C4.28572 15.0002 3.44539 14.448 2.74039 13.7396ZM4.98264 13.5751C5.48514 13.8906 6.01622 14.1221 6.57589 14.2694C7.13556 14.4169 7.69164 14.4906 8.24414 14.4906C9.01514 14.4906 9.77772 14.3381 10.5319 14.0329C11.2862 13.7277 12.0018 13.2303 12.6786 12.5406C12.9775 12.2406 13.2805 11.8198 13.5876 11.2781C13.8946 10.7365 14.1602 10.0281 14.3844 9.15315C14.6086 8.27815 14.7787 7.21981 14.8949 5.97815C15.0111 4.73648 15.0339 3.25731 14.9634 1.54065C14.1467 1.50731 13.2226 1.49798 12.1911 1.51265C11.1598 1.52748 10.131 1.61148 9.10464 1.76465C8.07847 1.91781 7.10864 2.1579 6.19514 2.4849C5.28164 2.81173 4.54281 3.25723 3.97864 3.8214C3.23514 4.56506 2.71847 5.31798 2.42864 6.08015C2.13897 6.84231 1.99414 7.56506 1.99414 8.2484C1.99414 9.19323 2.17847 10.0477 2.54714 10.8119C2.91564 11.5759 3.29922 12.1431 3.69789 12.5136C4.25689 11.2573 5.04247 10.0519 6.05464 8.8974C7.06681 7.7429 8.34922 6.73556 9.90189 5.8754C8.72739 6.89973 7.72156 8.02473 6.88439 9.2504C6.04722 10.4759 5.41331 11.9175 4.98264 13.5751Z" fill="#656579"/>
</svg>
