<svg width="17" height="16" viewBox="0 0 17 16" fill="none" xmlns="http://www.w3.org/2000/svg">
<path d="M2.24625 13.7303C1.54108 13.022 0.990417 12.2075 0.59425 11.2868C0.198083 10.3661 0 9.41429 0 8.43129C0 7.44546 0.188833 6.46729 0.5665 5.49679C0.944 4.52629 1.55392 3.61987 2.39625 2.77754C3.00525 2.16854 3.76775 1.66688 4.68375 1.27254C5.59975 0.878376 6.63725 0.578125 7.79625 0.371792C8.95525 0.165292 10.2183 0.045042 11.5855 0.011042C12.9528 -0.0227913 14.3872 0.0211258 15.8885 0.142793C15.9962 1.57613 16.033 2.96879 15.999 4.32079C15.965 5.67263 15.8468 6.93313 15.6443 8.10229C15.4416 9.27163 15.1458 10.3245 14.7568 11.261C14.3676 12.1975 13.8666 12.9722 13.2538 13.585C12.4281 14.4172 11.5451 15.0246 10.6048 15.4073C9.66442 15.79 8.712 15.9813 7.7475 15.9813C6.73633 15.9813 5.74292 15.7832 4.76725 15.387C3.79158 14.9909 2.95125 14.4386 2.24625 13.7303ZM4.4885 13.5658C4.991 13.8813 5.52208 14.1127 6.08175 14.26C6.64142 14.4075 7.1975 14.4813 7.75 14.4813C8.521 14.4813 9.28358 14.3287 10.0378 14.0235C10.7921 13.7184 11.5077 13.221 12.1845 12.5313C12.4833 12.2313 12.7863 11.8105 13.0935 11.2688C13.4005 10.7271 13.6661 10.0188 13.8903 9.14379C14.1144 8.26879 14.2846 7.21046 14.4008 5.96879C14.5169 4.72713 14.5398 3.24796 14.4693 1.53129C13.6526 1.49796 12.7285 1.48863 11.697 1.50329C10.6657 1.51813 9.63683 1.60213 8.6105 1.75529C7.58433 1.90846 6.6145 2.14854 5.701 2.47554C4.7875 2.80238 4.04867 3.24787 3.4845 3.81204C2.741 4.55571 2.22433 5.30863 1.9345 6.07079C1.64483 6.83296 1.5 7.55571 1.5 8.23904C1.5 9.18388 1.68433 10.0384 2.053 10.8025C2.4215 11.5665 2.80508 12.1338 3.20375 12.5043C3.76275 11.248 4.54833 10.0425 5.5605 8.88804C6.57267 7.73354 7.85508 6.72621 9.40775 5.86604C8.23325 6.89038 7.22742 8.01538 6.39025 9.24104C5.55308 10.4665 4.91917 11.9081 4.4885 13.5658Z" fill="#197335"/>
</svg>
