<svg width="326" height="163" viewBox="0 0 326 163" fill="none" xmlns="http://www.w3.org/2000/svg">
<path d="M326 163C326 141.595 321.784 120.399 313.592 100.623C305.401 80.8466 293.394 62.8776 278.258 47.7417C263.122 32.6057 245.153 20.5992 225.377 12.4077C205.601 4.21619 184.405 6.81303e-05 163 6.9066e-05C141.595 7.00017e-05 120.399 4.21619 100.623 12.4077C80.8465 20.5992 62.8775 32.6057 47.7416 47.7417C32.6056 62.8776 20.5991 80.8466 12.4076 100.623C4.21612 120.399 -1.87132e-06 141.595 0 163H32.6C32.6 145.876 35.9729 128.919 42.5261 113.098C49.0793 97.2773 58.6845 82.9021 70.7933 70.7933C82.902 58.6846 97.2772 49.0794 113.098 42.5262C128.919 35.973 145.876 32.6001 163 32.6001C180.124 32.6001 197.081 35.973 212.902 42.5262C228.723 49.0794 243.098 58.6846 255.207 70.7933C267.315 82.9021 276.921 97.2773 283.474 113.098C290.027 128.919 293.4 145.876 293.4 163H326Z" fill="#FAFAFA"/>
<path d="M0 163C2.81837e-06 130.762 9.55979 99.2473 27.4705 72.4421C45.3811 45.6369 70.8382 24.7448 100.623 12.4077C130.407 0.0706301 163.181 -3.15732 194.8 3.13208C226.419 9.42148 255.462 24.9457 278.258 47.7417L266.733 59.2675C246.216 38.7512 220.077 24.7793 191.62 19.1189C163.163 13.4584 133.666 16.3636 106.86 27.4669C80.0544 38.5703 57.143 57.3732 41.0234 81.4979C24.9038 105.623 16.3 133.986 16.3 163L0 163Z" fill="#FFC300"/>
<path d="M251.262 63.4973L265.966 59.5309L262.049 74.2485L251.262 63.4973Z" fill="#2E2E38"/>
</svg>
