<svg width="17" height="16" viewBox="0 0 17 16" fill="none" xmlns="http://www.w3.org/2000/svg">
<path d="M2.74063 13.7396C2.03547 13.0313 1.4848 12.2168 1.08863 11.2961C0.692468 10.3755 0.494385 9.42365 0.494385 8.44065C0.494385 7.45481 0.683218 6.47665 1.06088 5.50615C1.43838 4.53565 2.0483 3.62923 2.89064 2.7869C3.49963 2.1779 4.26214 1.67623 5.17813 1.2819C6.09413 0.88773 7.13164 0.587479 8.29064 0.381145C9.44964 0.174645 10.7127 0.0543956 12.0799 0.0203956C13.4472 -0.0134377 14.8816 0.0304795 16.3829 0.152146C16.4906 1.58548 16.5274 2.97815 16.4934 4.33015C16.4594 5.68198 16.3411 6.94248 16.1386 8.11165C15.936 9.28098 15.6401 10.3339 15.2511 11.2704C14.862 12.2069 14.361 12.9816 13.7481 13.5944C12.9225 14.4266 12.0395 15.034 11.0991 15.4166C10.1588 15.7993 9.20638 15.9906 8.24188 15.9906C7.23072 15.9906 6.2373 15.7926 5.26163 15.3964C4.28597 15.0002 3.44564 14.448 2.74063 13.7396ZM4.98288 13.5751C5.48538 13.8906 6.01647 14.1221 6.57613 14.2694C7.1358 14.4169 7.69188 14.4906 8.24438 14.4906C9.01538 14.4906 9.77797 14.3381 10.5321 14.0329C11.2865 13.7277 12.0021 13.2303 12.6789 12.5406C12.9777 12.2406 13.2807 11.8198 13.5879 11.2781C13.8949 10.7365 14.1605 10.0281 14.3846 9.15315C14.6088 8.27815 14.779 7.21981 14.8951 5.97815C15.0113 4.73648 15.0341 3.25731 14.9636 1.54065C14.147 1.50731 13.2229 1.49798 12.1914 1.51265C11.1601 1.52748 10.1312 1.61148 9.10489 1.76465C8.07872 1.91781 7.10889 2.1579 6.19538 2.4849C5.28189 2.81173 4.54305 3.25723 3.97888 3.8214C3.23538 4.56506 2.71872 5.31798 2.42888 6.08015C2.13922 6.84231 1.99438 7.56506 1.99438 8.2484C1.99438 9.19323 2.17872 10.0477 2.54738 10.8119C2.91588 11.5759 3.29947 12.1431 3.69813 12.5136C4.25713 11.2573 5.04272 10.0519 6.05489 8.8974C7.06705 7.7429 8.34947 6.73556 9.90213 5.8754C8.72763 6.89973 7.7218 8.02473 6.88463 9.2504C6.04747 10.4759 5.41355 11.9175 4.98288 13.5751Z" fill="#197335"/>
</svg>
