<svg width="19" height="18" viewBox="0 0 19 18" fill="none" xmlns="http://www.w3.org/2000/svg">
<path d="M0.75 17.75V4.25H4.75V0.25H14.25V8.25H18.25V17.75H10.75V13.75H8.25V17.75H0.75ZM2.25 16.25H4.75V13.75H2.25V16.25ZM2.25 12.25H4.75V9.75H2.25V12.25ZM2.25 8.25H4.75V5.75H2.25V8.25ZM6.25 12.25H8.75V9.75H6.25V12.25ZM6.25 8.25H8.75V5.75H6.25V8.25ZM6.25 4.25H8.75V1.75H6.25V4.25ZM10.25 12.25H12.75V9.75H10.25V12.25ZM10.25 8.25H12.75V5.75H10.25V8.25ZM10.25 4.25H12.75V1.75H10.25V4.25ZM14.25 16.25H16.75V13.75H14.25V16.25ZM14.25 12.25H16.75V9.75H14.25V12.25Z" fill="#636569"/>
</svg>
